<svg width="250" height="250" viewBox="0 0 250 250" fill="#87d222" xmlns="http://www.w3.org/2000/svg">
  <path d="M228.622 35.5863L231.307 36.0922L232.187 36.2863C237.922 38.3177 241.93 42.1471 244.21 47.7745C244.571 48.749 244.788 49.4157 244.86 49.7745C245.295 51.8843 245.514 53.3922 245.516 54.2981C245.526 61.5294 245.519 68.7598 245.495 75.9892C245.494 76.5873 245.292 77.8873 244.89 79.8892C243.456 85.7932 240.079 90.0647 234.757 92.7039C233.994 93.0824 233.24 93.3814 232.493 93.601C231.5 93.8912 230.715 94.1079 230.137 94.251C229.98 94.2902 229.403 94.3628 228.407 94.4686C227.899 94.5216 227.32 94.549 226.669 94.551C218.094 94.5608 206.315 94.5588 191.331 94.5451C190.19 94.5451 189.048 95.5333 188.06 96.1245C187.929 96.203 184.018 98.5245 176.328 103.089C174.938 103.915 174.053 104.45 173.675 104.695C172.753 105.297 172.021 105.662 171.478 105.789C170.725 105.968 169.903 105.952 169.013 105.742C167.407 105.366 166.31 104.462 165.722 103.03C165.544 102.599 165.413 101.987 165.331 101.195C165.128 99.2392 165.281 97.2745 165.154 95.3098C165.148 74.2432 165.151 60.7441 165.163 54.8128C165.167 53.3167 165.346 51.7461 165.701 50.101C166.725 45.3569 170.007 41.0481 173.966 38.451C175.743 37.2863 177.902 36.3824 180.445 35.7392C181.434 35.4922 182.834 35.4539 183.716 35.451C197.285 35.4 211.832 35.4216 227.357 35.5157C227.789 35.5177 228.21 35.5412 228.622 35.5863ZM179.245 91.8392C181.489 90.6314 183.691 89.3432 185.851 87.9745C186.744 87.4098 187.633 87.0147 188.519 86.7892C188.609 86.7658 188.702 86.753 188.795 86.751C196.969 86.6422 207.293 86.6745 223.707 86.7187C226.303 86.7265 228.16 86.5736 229.278 86.2598C232.848 85.2598 236.201 82.3686 236.984 78.5569L237.251 77.2745C237.273 77.1748 237.284 77.0733 237.284 76.9716C237.301 68.3226 237.315 61.3667 237.325 56.1039C237.329 53.9765 237.185 52.3922 236.893 51.351C235.919 47.8598 233.131 44.8422 229.469 43.9069C228.393 43.6324 227.578 43.4814 227.025 43.4539C225.346 43.3677 222.258 43.352 217.76 43.4069C211.666 43.4794 200.767 43.4647 185.063 43.3628C181.673 43.3412 178.846 44.5363 176.584 46.9481C174.198 49.4922 173.59 52.2834 173.587 55.5481C173.565 77.1285 173.555 88.0108 173.557 88.1951C173.577 90.6069 173.618 92.552 173.681 94.0304C173.684 94.1097 173.708 94.1869 173.749 94.2546C173.791 94.3224 173.849 94.3786 173.918 94.4179C173.987 94.4572 174.065 94.4785 174.144 94.4796C174.223 94.4808 174.302 94.4618 174.372 94.4245L179.245 91.8392Z" fill="#87d222"/>
  <path d="M99.7542 39.154C102.562 39.6775 104.863 40.1814 106.657 40.6657C111.887 42.0775 117.184 44.5892 121.934 47.6981C124.238 49.204 126.547 51.1118 128.863 53.4216C130.192 54.6824 131.479 56.1392 132.722 57.7922C135.36 61.2951 137.495 64.7951 139.134 68.8216C140.112 71.2294 140.799 73.2285 141.195 74.8187C142.416 79.7363 143.004 84.6481 142.963 89.7657C142.947 91.4775 142.867 93.552 142.722 95.9892C142.675 96.7834 142.694 97.7177 142.781 98.7922C143.084 102.704 146.36 106.151 149.501 108.075C151.113 109.061 152.9 109.863 154.863 110.48C158.006 111.469 161.224 112.102 164.516 112.38C165.416 112.455 165.999 112.494 166.266 112.498C167.225 112.508 167.811 112.529 168.025 112.563C169.725 112.83 171.254 112.727 173.528 112.736C175.825 112.745 177.484 112.551 180.41 112.336C183.469 112.11 185.722 111.616 188.86 111.13C190.335 110.903 191.579 111.014 192.592 111.463C194.247 112.194 195.178 113.462 195.384 115.266C195.554 116.766 194.74 118.63 193.966 119.922C193.481 120.73 193.225 121.219 192.79 121.792C192.168 122.61 191.531 123.451 190.878 124.316C190.219 125.183 189.542 125.769 188.898 126.513C188.204 127.317 187.709 127.869 187.413 128.169C183.305 132.333 178.966 135.677 174.395 138.198C171.035 140.051 167.346 141.525 163.331 142.619C161.54 143.11 159.21 143.436 157.451 143.722C156.269 143.916 155.198 143.948 153.937 143.977C153.76 143.981 153.654 144.068 153.619 144.236C153.611 144.34 153.573 144.424 153.504 144.486C153.485 144.505 153.47 144.527 153.459 144.551C153.449 144.576 153.444 144.602 153.445 144.627C153.49 148.914 153.13 153.385 152.363 158.042C151.887 160.932 151.29 163.515 150.572 165.789C147.45 177.883 141.105 187.895 131.537 195.825L130.098 196.966C130.041 197.012 129.999 197.073 129.978 197.142C129.71 197.998 130.628 198.242 131.201 198.53C131.74 198.811 132.568 199.151 133.684 199.551C135.354 200.147 136.962 201.07 138.507 202.319C140.048 203.563 141.139 204.569 141.307 206.46C141.38 207.297 141.305 207.988 141.084 208.533C140.063 211.03 137.748 211.939 135.331 212.489C134.613 212.652 133.782 212.73 132.837 212.725C128.29 212.693 123.881 212.11 119.61 210.975C116.977 210.276 115.359 209.863 114.757 209.733C112.285 209.204 109.953 208.667 107.763 208.122C106.183 207.729 104.189 207.461 101.784 207.316L85.916 207.333C84.0062 207.237 82.0954 207.201 80.1836 207.225C78.8679 207.24 77.7042 207.435 76.6924 207.81C74.0866 208.773 71.2532 209.828 68.1924 210.977C66.7748 211.509 65.3169 211.98 63.8189 212.392C61.5209 213.026 60.0336 213.405 59.3571 213.53C56.7277 214.015 54.5277 214.325 52.7571 214.46C50.313 214.648 47.1983 214.663 44.5777 214.077C42.3836 213.589 40.7071 213.077 39.3189 212.072C37.4307 210.704 36.2454 208.939 36.7042 206.572C37.063 204.754 38.113 203.457 39.4542 202.172C40.2228 201.434 41.6268 200.34 43.666 198.889C44.315 198.428 44.513 197.859 44.2601 197.18C44.2111 197.127 44.1777 197.07 44.1601 197.007C44.0758 196.842 43.9699 196.703 43.8424 196.589C37.215 190.662 32.5071 183.471 29.7189 175.016C28.664 171.82 27.9307 168.542 27.5189 165.183C27.4522 164.332 27.3767 163.472 27.2924 162.601C27.1905 161.548 27.1346 160.425 27.1248 159.23C27.1189 158.374 27.3767 157.728 27.8983 157.295C29.3081 156.121 30.9522 154.678 32.8307 152.969C33.7052 152.171 34.4003 151.355 34.916 150.522C35.1807 149.637 34.9777 149.002 34.3071 148.616C33.4336 147.907 31.9836 148.998 31.1601 149.619C28.6836 151.491 26.3111 153.429 24.0424 155.433C18.0542 160.726 14.2071 164.083 12.5013 165.507C10.7454 166.972 8.47479 167.607 6.47773 166.225C5.52675 165.566 4.99145 164.858 4.87185 164.101C4.76596 163.425 4.63557 162.751 4.48067 162.08C4.47185 160.069 4.75714 158.313 4.96302 156.463C5.11204 155.135 5.27675 154.027 5.45714 153.139C6.76498 146.692 8.77087 140.499 11.4748 134.56C13.8513 129.344 16.364 124.699 19.013 120.625C21.1071 117.403 23.8581 113.416 27.266 108.663C29.1395 106.051 30.5571 103.333 31.0748 100.122C31.2513 99.0236 31.5022 97.0353 31.8277 94.1569C31.9846 92.7843 32.5013 90.049 33.3777 85.951C33.7248 84.3294 34.1983 82.6569 34.7983 80.9334C35.7826 78.0941 36.3611 76.4539 36.5336 76.0128C42.066 61.8128 53.0924 49.4451 67.2366 43.3745L70.1836 42.1834L71.8218 41.6069L77.9248 39.8422C85.164 38.3304 92.4405 38.101 99.7542 39.154ZM59.563 63.704C57.6454 65.8412 56.114 68.0951 54.9689 70.4657C53.7081 73.0775 52.815 75.9255 52.2895 79.0098C52.0287 80.5432 51.8375 82.0834 51.716 83.6304C51.4042 87.6187 51.7287 91.5471 52.6895 95.4157C52.8385 96.102 53.0415 96.7736 53.2983 97.4304C54.0591 99.3716 54.8552 101.062 55.6866 102.501C57.3356 105.35 59.3807 107.755 61.8218 109.716C62.5689 110.313 63.5248 111.169 64.016 111.722C64.8983 112.72 65.0944 113.838 64.6042 115.077C64.5729 115.154 64.5334 115.225 64.4866 115.289C63.8709 116.125 63.5052 116.593 63.3895 116.695C59.5346 120.076 56.2493 123.869 53.5336 128.075C52.913 129.039 52.5365 129.969 52.0218 130.898C51.6473 131.576 51.2924 132.294 50.9571 133.051C48.1316 139.418 46.5748 146.116 46.2865 153.145L46.2277 155.63L46.2836 157.745L46.6513 162.457C47.5513 169.531 50.0895 175.964 54.266 181.754C55.166 182.999 56.1993 184.224 57.366 185.427C59.466 187.592 61.9718 189.677 64.5513 191.327C69.8709 194.729 75.6689 197.062 81.9454 198.325C85.4728 199.034 89.0307 199.393 92.6189 199.401C95.5915 199.548 98.5326 199.447 101.442 199.098C107.357 198.395 113.16 196.877 118.484 194.169C121.76 192.633 124.752 190.671 127.46 188.28C127.546 188.206 127.583 188.115 127.569 188.007C127.718 188.038 127.878 187.975 128.048 187.816C130.134 185.854 132.278 183.713 133.951 181.48C137.292 177.022 139.931 172.045 141.692 166.689C142.43 164.456 142.855 163.095 142.969 162.607C144.034 158.083 144.701 153.992 144.972 150.333C145.417 144.304 145.226 138.008 144.398 131.445C144.163 129.577 143.689 127.477 143.331 125.536C143.048 124.004 142.54 122.36 142.142 120.763L141.045 117.154C140.108 114.428 139.224 112.134 138.392 110.272C137.463 108.195 136.767 106.55 136.304 105.336C135.469 103.087 134.972 101.099 134.813 99.3716C134.557 96.5951 135.048 93.7745 135.201 90.9716C135.311 90.2638 135.364 89.5412 135.36 88.804C135.342 85.9314 135.096 83.1236 134.622 80.3804C134.06 77.1451 133.054 74.1539 131.872 71.2922C129.751 66.1598 125.966 61.2892 121.225 58.3334C119.197 57.0706 116.897 56.2334 114.325 55.8216C111.329 55.3883 108.485 55.7275 105.792 56.8392C103.766 57.6775 101.884 59.1187 100.095 60.4598C99.0895 61.2128 97.6513 61.6745 96.5807 60.7716C96.4042 60.6226 95.4287 59.9118 93.6542 58.6392C91.0071 56.7412 87.966 55.504 84.5307 54.9275C84.2601 54.8824 83.8111 54.8373 83.1836 54.7922C83.0111 54.7471 82.8228 54.7138 82.6189 54.6922C73.8071 53.7775 65.4571 57.0157 59.563 63.704Z" fill="#87d222"/>
  <path d="M212.757 62.0334C211.798 61.9902 210.28 62.0108 208.201 62.0951C205.301 62.2147 199.395 62.1961 190.481 62.0393C189.334 62.0196 188.41 61.9569 187.71 61.851C186.759 61.7059 185.976 61.2716 185.36 60.5481C184.235 59.0187 184.178 57.502 185.19 55.9981C185.811 55.0726 186.693 54.6108 187.834 54.6128C206.432 54.6422 216.946 54.6442 219.378 54.6187C219.896 54.6128 221.357 54.4245 222.016 54.6804C224.854 55.7804 225.363 58.8422 223.348 61.0481C223.215 61.1951 222.817 61.3883 222.154 61.6275C221.799 61.7549 221.362 61.8265 220.843 61.8422C219.307 61.8912 217.986 61.9059 216.878 61.8863C215.478 61.8628 214.134 61.951 212.757 62.0334Z" fill="#87d222"/>
  <path d="M211.413 67.3745H188.307C186.243 67.3745 184.569 69.0482 184.569 71.1128V71.3304C184.569 73.395 186.243 75.0686 188.307 75.0686H211.413C213.478 75.0686 215.151 73.395 215.151 71.3304V71.1128C215.151 69.0482 213.478 67.3745 211.413 67.3745Z" fill="#87d222"/>
  <path d="M120.548 79.1467C120.609 75.6223 118.583 72.729 116.021 72.6843C113.46 72.6396 111.334 75.4604 111.273 78.9848C111.211 82.5091 113.237 85.4024 115.799 85.4471C118.36 85.4918 120.486 82.671 120.548 79.1467Z" fill="#87d222"/>
  <path d="M88.4835 79.1327C88.4896 75.6257 86.4113 72.7791 83.8416 72.7746C81.2719 72.7701 79.1837 75.6094 79.1776 79.1164C79.1715 82.6234 81.2497 85.4701 83.8194 85.4746C86.3892 85.479 88.4773 82.6397 88.4835 79.1327Z" fill="#87d222"/>
  <path d="M116.557 93.6275C116.986 95.8834 115.695 96.8422 113.622 97.5039C111.455 98.1961 109.716 98.6588 108.404 98.8922C107.2 99.1079 106.468 99.2422 106.207 99.2951C105.444 99.4539 104.702 99.5441 103.981 99.5657C101.849 99.6265 100.071 99.4863 98.6452 99.1451C92.6394 97.7069 91.4482 90.5392 96.4452 87.0745C98.6511 85.5471 101.211 85.2451 104.125 86.1686C104.589 86.3157 105.66 86.8471 107.336 87.7628C107.825 88.0294 108.885 88.5667 110.519 89.3745C112.113 90.1608 113.589 90.9971 114.948 91.8834C115.582 92.299 116.082 92.7902 116.448 93.3569C116.501 93.4385 116.538 93.5303 116.557 93.6275Z" fill="#87d222"/>
</svg>
